# xmcd
#
# Track frame offsets: 
#        150
#        19172
#        32342
#        48607
#        64620
#        74330
#        87692
#        99892
#        112692
#        132367
#        141152
#        155847
#        167490
#        180607
#        195032
#        207680
#
# Disc length: 2954 seconds
#
# Revision: 0
# Processed by: cddbd v1.5.1PL0 Copyright (c) Steve Scherf et al.
# Submitted via: ExactAudioCopy v0.95a5
#
DISCID=d80b8810
DTITLE=Ray Charles - Ray Charles
DYEAR=1900
DGENRE=Soul
TTITLE0=I can't stop loving you
TTITLE1=Take these chains from my heart
TTITLE2=Georgia on my mind
TTITLE3=Your cheatin' heart
TTITLE4=Busted
TTITLE5=You are my sunshine
TTITLE6=Please say your fooling
TTITLE7=Unchain my heart
TTITLE8=That lucky old sun
TTITLE9=Hit the road Jack
TTITLE10=Born to lose
TTITLE11=In the heat of the night
TTITLE12=Let's go get stoned
TTITLE13=Feel so bad
TTITLE14=My heart cries out for you
TTITLE15=Don't change on me
EXTD=
EXTT0=
EXTT1=
EXTT2=
EXTT3=
EXTT4=
EXTT5=
EXTT6=
EXTT7=
EXTT8=
EXTT9=
EXTT10=
EXTT11=
EXTT12=
EXTT13=
EXTT14=
EXTT15=
PLAYORDER=
